<?xml version="1.0" encoding="UTF-8" standalone="no"?>
<!-- Created with Inkscape (http://www.inkscape.org/) -->

<svg
   xmlns:dc="http://purl.org/dc/elements/1.1/"
   xmlns:cc="http://creativecommons.org/ns#"
   xmlns:rdf="http://www.w3.org/1999/02/22-rdf-syntax-ns#"
   xmlns:svg="http://www.w3.org/2000/svg"
   xmlns="http://www.w3.org/2000/svg"
   version="1.1"
   width="308"
   height="107.14454"
   id="svg3812">
  <defs
     id="defs3814" />
  <metadata
     id="metadata3817">
    <rdf:RDF>
      <cc:Work
         rdf:about="">
        <dc:format>image/svg+xml</dc:format>
        <dc:type
           rdf:resource="http://purl.org/dc/dcmitype/StillImage" />
        <dc:title></dc:title>
      </cc:Work>
    </rdf:RDF>
  </metadata>
  <g
     transform="translate(-15.153755,-176.31498)"
     id="layer1">
    <path
       d="m 46.755226,180.31498 -6.609636,0 0,13.21927 6.609636,0 z"
       id="path4111"
       style="font-size:40px;font-style:normal;font-variant:normal;font-weight:normal;font-stretch:normal;line-height:125%;letter-spacing:0px;word-spacing:0px;fill:#666666;fill-opacity:1;stroke:none;font-family:Alterebro Pixel Font;-inkscape-font-specification:Sans" />
    <path
       d="m 59.388515,180.31498 -6.609636,0 0,13.21927 6.609636,0 z"
       id="path4115"
       style="font-size:40px;font-style:normal;font-variant:normal;font-weight:normal;font-stretch:normal;line-height:125%;letter-spacing:0px;word-spacing:0px;fill:#666666;fill-opacity:1;stroke:none;font-family:Alterebro Pixel Font;-inkscape-font-specification:Sans" />
    <path
       d="m 84.655093,180.31498 -6.609637,0 0,13.21927 6.609637,0 z"
       id="path4119"
       style="font-size:40px;font-style:normal;font-variant:normal;font-weight:normal;font-stretch:normal;line-height:125%;letter-spacing:0px;word-spacing:0px;fill:#666666;fill-opacity:1;stroke:none;font-family:Alterebro Pixel Font;-inkscape-font-specification:Sans" />
    <path
       d="m 97.288355,180.31498 -6.609636,0 0,13.21927 6.609636,0 z"
       id="path4123"
       style="font-size:40px;font-style:normal;font-variant:normal;font-weight:normal;font-stretch:normal;line-height:125%;letter-spacing:0px;word-spacing:0px;fill:#666666;fill-opacity:1;stroke:none;font-family:Alterebro Pixel Font;-inkscape-font-specification:Sans" />
    <path
       d="m 72.021804,180.31498 -6.609636,0 0,13.21927 6.609636,0 z"
       id="path4261"
       style="font-size:40px;font-style:normal;font-variant:normal;font-weight:normal;font-stretch:normal;line-height:125%;letter-spacing:0px;word-spacing:0px;fill:#666666;fill-opacity:1;stroke:none;font-family:Alterebro Pixel Font;-inkscape-font-specification:Sans" />
    <path
       d="m 105.07903,251.84898 0,6.60964 13.21927,0 0,-6.60964 z"
       id="path4309"
       style="font-size:40px;font-style:normal;font-variant:normal;font-weight:normal;font-stretch:normal;line-height:125%;letter-spacing:0px;word-spacing:0px;fill:#666666;fill-opacity:1;stroke:none;font-family:Alterebro Pixel Font;-inkscape-font-specification:Sans" />
    <path
       d="m 105.07903,239.21569 0,6.60964 13.21927,0 0,-6.60964 z"
       id="path4311"
       style="font-size:40px;font-style:normal;font-variant:normal;font-weight:normal;font-stretch:normal;line-height:125%;letter-spacing:0px;word-spacing:0px;fill:#666666;fill-opacity:1;stroke:none;font-family:Alterebro Pixel Font;-inkscape-font-specification:Sans" />
    <path
       d="m 105.07903,213.94912 0,6.60963 13.21927,0 0,-6.60963 z"
       id="path4315"
       style="font-size:40px;font-style:normal;font-variant:normal;font-weight:normal;font-stretch:normal;line-height:125%;letter-spacing:0px;word-spacing:0px;fill:#666666;fill-opacity:1;stroke:none;font-family:Alterebro Pixel Font;-inkscape-font-specification:Sans" />
    <path
       d="m 105.07903,201.31585 0,6.60964 13.21927,0 0,-6.60964 z"
       id="path4319"
       style="font-size:40px;font-style:normal;font-variant:normal;font-weight:normal;font-stretch:normal;line-height:125%;letter-spacing:0px;word-spacing:0px;fill:#666666;fill-opacity:1;stroke:none;font-family:Alterebro Pixel Font;-inkscape-font-specification:Sans" />
    <path
       d="m 46.755226,266.24025 -6.609636,0 0,13.21927 6.609636,0 z"
       id="path4267"
       style="font-size:40px;font-style:normal;font-variant:normal;font-weight:normal;font-stretch:normal;line-height:125%;letter-spacing:0px;word-spacing:0px;fill:#666666;fill-opacity:1;stroke:none;font-family:Alterebro Pixel Font;-inkscape-font-specification:Sans" />
    <path
       d="m 59.388515,266.24025 -6.609636,0 0,13.21927 6.609636,0 z"
       id="path4269"
       style="font-size:40px;font-style:normal;font-variant:normal;font-weight:normal;font-stretch:normal;line-height:125%;letter-spacing:0px;word-spacing:0px;fill:#666666;fill-opacity:1;stroke:none;font-family:Alterebro Pixel Font;-inkscape-font-specification:Sans" />
    <path
       d="m 84.655093,266.24025 -6.609637,0 0,13.21927 6.609637,0 z"
       id="path4273"
       style="font-size:40px;font-style:normal;font-variant:normal;font-weight:normal;font-stretch:normal;line-height:125%;letter-spacing:0px;word-spacing:0px;fill:#666666;fill-opacity:1;stroke:none;font-family:Alterebro Pixel Font;-inkscape-font-specification:Sans" />
    <path
       d="m 97.288355,266.24025 -6.609636,0 0,13.21927 6.609636,0 z"
       id="path4277"
       style="font-size:40px;font-style:normal;font-variant:normal;font-weight:normal;font-stretch:normal;line-height:125%;letter-spacing:0px;word-spacing:0px;fill:#666666;fill-opacity:1;stroke:none;font-family:Alterebro Pixel Font;-inkscape-font-specification:Sans" />
    <path
       d="m 19.153755,251.84898 0,6.60964 13.219273,0 0,-6.60964 z"
       id="path4289"
       style="font-size:40px;font-style:normal;font-variant:normal;font-weight:normal;font-stretch:normal;line-height:125%;letter-spacing:0px;word-spacing:0px;fill:#666666;fill-opacity:1;stroke:none;font-family:Alterebro Pixel Font;-inkscape-font-specification:Sans" />
    <path
       d="m 19.153755,239.21569 0,6.60964 13.219273,0 0,-6.60964 z"
       id="path4291"
       style="font-size:40px;font-style:normal;font-variant:normal;font-weight:normal;font-stretch:normal;line-height:125%;letter-spacing:0px;word-spacing:0px;fill:#666666;fill-opacity:1;stroke:none;font-family:Alterebro Pixel Font;-inkscape-font-specification:Sans" />
    <path
       d="m 19.153755,213.94912 0,6.60963 13.219273,0 0,-6.60963 z"
       id="path4295"
       style="font-size:40px;font-style:normal;font-variant:normal;font-weight:normal;font-stretch:normal;line-height:125%;letter-spacing:0px;word-spacing:0px;fill:#666666;fill-opacity:1;stroke:none;font-family:Alterebro Pixel Font;-inkscape-font-specification:Sans" />
    <path
       d="m 19.153755,201.31585 0,6.60964 13.219273,0 0,-6.60964 z"
       id="path4299"
       style="font-size:40px;font-style:normal;font-variant:normal;font-weight:normal;font-stretch:normal;line-height:125%;letter-spacing:0px;word-spacing:0px;fill:#666666;fill-opacity:1;stroke:none;font-family:Alterebro Pixel Font;-inkscape-font-specification:Sans" />
    <path
       d="m 19.153755,226.58241 0,6.60963 13.219273,0 0,-6.60963 z"
       id="path4303"
       style="font-size:40px;font-style:normal;font-variant:normal;font-weight:normal;font-stretch:normal;line-height:125%;letter-spacing:0px;word-spacing:0px;fill:#666666;fill-opacity:1;stroke:none;font-family:Alterebro Pixel Font;-inkscape-font-specification:Sans" />
    <path
       d="m 72.021804,266.24025 -6.609636,0 0,13.21927 6.609636,0 z"
       id="path4281"
       style="font-size:40px;font-style:normal;font-variant:normal;font-weight:normal;font-stretch:normal;line-height:125%;letter-spacing:0px;word-spacing:0px;fill:#666666;fill-opacity:1;stroke:none;font-family:Alterebro Pixel Font;-inkscape-font-specification:Sans" />
    <path
       d="m 105.07903,226.58241 0,6.60963 13.21927,0 0,-6.60963 z"
       id="path4323"
       style="font-size:40px;font-style:normal;font-variant:normal;font-weight:normal;font-stretch:normal;line-height:125%;letter-spacing:0px;word-spacing:0px;fill:#666666;fill-opacity:1;stroke:none;font-family:Alterebro Pixel Font;-inkscape-font-specification:Sans" />
    <path
       d="m 40.13935,193.53425 -7.766322,7.76632 0,57.17336 7.766322,7.76632 57.173355,0 7.766325,-7.76632 0,-57.17336 -7.766325,-7.76632 -57.173355,0 z"
       id="rect3961"
       style="fill:#1a1a1a;fill-opacity:1;stroke:#1a1a1a;stroke-width:0.26438546;stroke-miterlimit:4;stroke-opacity:1;stroke-dasharray:none" />
    <path
       d="m 68.395546,249.55092 0,6.60963 13.136652,0 0.247729,0 13.054032,0 0,-6.60963 -13.054032,0 -0.247729,0 -13.136652,0 z"
       id="path4021"
       style="font-size:32.7586441px;font-style:normal;font-variant:normal;font-weight:normal;font-stretch:normal;line-height:125%;letter-spacing:-2.12931132px;word-spacing:0px;fill:#b3b3b3;fill-opacity:1;stroke:none;font-family:Alterebro Pixel Font;-inkscape-font-specification:Sans" />
    <path
       d="m 73.724076,227.38947 c 0,1.09326 0.234246,2.11958 0.702816,3.07893 0.468518,0.95937 1.08205,1.8072 1.840652,2.54346 0.780862,0.71395 1.673295,1.28288 2.677325,1.7068 1.026292,0.4016 2.086054,0.6024 3.179315,0.60237 0.870092,3e-5 1.695609,-0.12267 2.476525,-0.36813 0.780862,-0.26771 1.494809,-0.63585 2.141839,-1.10439 0.647004,-0.46852 1.215935,-1.02629 1.706793,-1.67332 0.490832,-0.64701 0.870119,-1.36095 1.137862,-2.14187 l 5.28771,0 c -0.312372,1.51718 -0.870146,2.92276 -1.673322,4.21679 -0.780916,1.27175 -1.740291,2.3873 -2.878127,3.34665 -1.137888,0.93708 -2.420766,1.67334 -3.848633,2.2088 -1.427919,0.53546 -2.945068,0.80318 -4.551448,0.80318 -1.829521,0 -3.558628,-0.34582 -5.187322,-1.03745 -1.628694,-0.69163 -3.056613,-1.62869 -4.283705,-2.81118 -1.227119,-1.20481 -2.208809,-2.61038 -2.945043,-4.21679 -0.713973,-1.60638 -1.070946,-3.32433 -1.070946,-5.15385 l 0,-10.57542 c 0,-1.82947 0.356973,-3.54742 1.070946,-5.15382 0.736234,-1.60638 1.717924,-3.00081 2.945043,-4.18332 1.227092,-1.20475 2.655011,-2.15297 4.283705,-2.84466 1.628694,-0.6916 3.357801,-1.03742 5.187322,-1.03747 1.60638,5e-5 3.123529,0.26777 4.551448,0.8032 1.427867,0.53551 2.710745,1.28293 3.848633,2.24225 1.137836,0.93712 2.097211,2.05267 2.878127,3.34667 0.803176,1.29406 1.36095,2.68849 1.673322,4.1833 l -5.28771,0 c -0.267743,-0.75853 -0.64703,-1.46134 -1.137862,-2.10837 -0.490858,-0.64701 -1.059789,-1.20478 -1.706793,-1.67335 -0.64703,-0.46849 -1.360977,-0.83662 -2.141839,-1.10439 -0.780916,-0.26769 -1.606433,-0.40155 -2.476525,-0.4016 -1.093261,5e-5 -2.153023,0.21203 -3.179315,0.63587 -1.00403,0.40163 -1.896463,0.97056 -2.677325,1.70679 -0.758602,0.71398 -1.372134,1.55065 -1.840652,2.51 -0.468544,0.9594 -0.702816,1.98569 -0.702816,3.0789 l 0,10.57542"
       id="path4376"
       style="font-size:25.92405128px;font-style:normal;font-variant:normal;font-weight:normal;font-stretch:normal;line-height:125%;letter-spacing:0px;word-spacing:0px;fill:#ffffff;fill-opacity:1;stroke:none;font-family:Envy Code R;-inkscape-font-specification:Envy Code R" />
    <path
       d="m 45.756325,206.67928 13.832832,13.83284 0,3.17931 -13.832832,13.83283 -3.179314,0 0,-3.17931 12.243161,-12.24319 -12.243161,-12.24316 0,-3.17932 3.179314,0"
       id="path4379"
       style="font-size:21.60337639px;font-style:normal;font-variant:normal;font-weight:normal;font-stretch:normal;line-height:125%;letter-spacing:0px;word-spacing:0px;fill:#b3b3b3;fill-opacity:1;stroke:none;font-family:Envy Code R;-inkscape-font-specification:Envy Code R" />
    <path
       d="m 124.90791,241.19219 0,-35.65352 4.36286,-0.75059 0,12.47873 c 0.81315,-0.31274 1.67322,-0.5473 2.58019,-0.70369 0.93825,-0.18771 1.86085,-0.28146 2.76785,-0.28149 1.93903,3e-5 3.5497,0.28152 4.83199,0.84445 1.28225,0.53168 2.2987,1.29792 3.04932,2.2987 0.78184,0.96955 1.32914,2.14237 1.64194,3.51844 0.31271,1.37613 0.4691,2.89296 0.46912,4.55052 l 0,13.69845 -4.36286,0 0,-12.76022 c -3e-5,-1.50118 -0.10945,-2.78345 -0.32839,-3.84681 -0.18772,-1.06333 -0.51606,-1.92341 -0.98518,-2.58019 -0.46913,-0.65676 -1.09464,-1.12589 -1.87648,-1.40738 -0.78189,-0.31274 -1.75142,-0.4691 -2.90858,-0.46912 -0.46915,2e-5 -0.9539,0.0312 -1.45428,0.0939 -0.50043,0.0627 -0.98518,0.14066 -1.4543,0.23451 -0.43785,0.0627 -0.84443,0.14066 -1.21972,0.23451 -0.34405,0.0939 -0.59423,0.17212 -0.75062,0.23451 l 0,20.2662 -4.36286,0"
       id="path4350"
       style="font-size:17.74398041px;font-style:normal;font-variant:normal;font-weight:normal;font-stretch:normal;line-height:125%;letter-spacing:0px;word-spacing:0px;fill:#1a1a1a;fill-opacity:1;stroke:none;font-family:Ubuntu;-inkscape-font-specification:Ubuntu" />
    <path
       d="m 159.91931,238.04904 c 1.03206,0 1.93903,-0.0159 2.72093,-0.0468 0.81314,-0.0627 1.48555,-0.15651 2.01723,-0.28149 l 0,-7.27142 c -0.31277,-0.15625 -0.82879,-0.28146 -1.54811,-0.37532 -0.68806,-0.12505 -1.53248,-0.18771 -2.53329,-0.18771 -0.65678,0 -1.36047,0.0471 -2.11104,0.14065 -0.71934,0.0939 -1.39175,0.29712 -2.01726,0.60986 -0.59423,0.28149 -1.09461,0.68806 -1.50118,1.21974 -0.4066,0.5004 -0.60988,1.17282 -0.60986,2.01724 -2e-5,1.56373 0.50038,2.65837 1.50119,3.28387 1.0008,0.59421 2.36125,0.89133 4.08139,0.89133 m -0.37529,-21.86122 c 1.75137,3e-5 3.2213,0.23451 4.40976,0.70369 1.21972,0.43788 2.18925,1.07901 2.90859,1.92341 0.75056,0.81317 1.28224,1.79832 1.59501,2.95548 0.31274,1.12591 0.46912,2.37691 0.46912,3.75301 l 0,15.24655 c -0.37532,0.0627 -0.90697,0.15652 -1.59501,0.28149 -0.65681,0.0939 -1.4074,0.18772 -2.2518,0.28147 -0.84444,0.0938 -1.76707,0.17211 -2.76785,0.23451 -0.96953,0.0938 -1.93905,0.14065 -2.90858,0.14065 -1.3761,0 -2.64275,-0.14065 -3.79991,-0.4222 -1.15716,-0.28149 -2.15796,-0.71934 -3.00238,-1.31357 -0.84445,-0.62548 -1.50121,-1.43863 -1.97034,-2.43943 -0.46912,-1.00081 -0.70369,-2.2049 -0.70369,-3.61227 0,-1.34483 0.26584,-2.50199 0.79752,-3.47152 0.56296,-0.96953 1.31355,-1.75139 2.2518,-2.34563 0.93825,-0.5942 2.03286,-1.03208 3.28388,-1.31354 1.25099,-0.28147 2.56454,-0.4222 3.94064,-0.42222 0.43785,2e-5 0.89132,0.0312 1.36047,0.0939 0.4691,0.0312 0.90695,0.0939 1.31355,0.18772 0.43782,0.0626 0.81314,0.12505 1.12591,0.18771 0.31272,0.0627 0.53165,0.10945 0.65676,0.14065 l 0,-1.21971 c -3e-5,-0.71932 -0.0783,-1.42301 -0.23451,-2.11107 -0.15652,-0.71931 -0.43787,-1.3448 -0.84442,-1.8765 -0.4066,-0.56293 -0.96955,-1.00078 -1.68884,-1.31355 -0.68806,-0.34402 -1.59504,-0.51602 -2.72092,-0.51605 -1.43868,3e-5 -2.7053,0.10945 -3.79994,0.32839 -1.06336,0.18772 -1.86085,0.39098 -2.39253,0.60986 l -0.51602,-3.61225 c 0.56293,-0.2501 1.50118,-0.48475 2.81472,-0.70368 1.31355,-0.25011 2.73658,-0.37527 4.26906,-0.3753"
       id="path4352"
       style="font-size:17.74398041px;font-style:normal;font-variant:normal;font-weight:normal;font-stretch:normal;line-height:125%;letter-spacing:0px;word-spacing:0px;fill:#1a1a1a;fill-opacity:1;stroke:none;font-family:Ubuntu;-inkscape-font-specification:Ubuntu" />
    <path
       d="m 197.65968,228.99492 c -3e-5,1.93906 -0.2815,3.69048 -0.84442,5.25421 -0.56299,1.56376 -1.36048,2.90859 -2.39253,4.03447 -1.00084,1.12592 -2.20493,2.00161 -3.61228,2.6271 -1.40737,0.59423 -2.93986,0.89134 -4.59742,0.89134 -1.65759,0 -3.19005,-0.29711 -4.59743,-0.89134 -1.40737,-0.62549 -2.62709,-1.50118 -3.65917,-2.6271 -1.00081,-1.12588 -1.78267,-2.47071 -2.34563,-4.03447 -0.56295,-1.56373 -0.84442,-3.31515 -0.84442,-5.25421 0,-1.90775 0.28147,-3.64352 0.84442,-5.20728 0.56296,-1.59501 1.34482,-2.95546 2.34563,-4.0814 1.03208,-1.12586 2.2518,-1.98593 3.65917,-2.58016 1.40738,-0.62549 2.93984,-0.93823 4.59743,-0.93825 1.65756,2e-5 3.19005,0.31276 4.59742,0.93825 1.40735,0.59423 2.61144,1.4543 3.61228,2.58016 1.03205,1.12594 1.82954,2.48639 2.39253,4.0814 0.56292,1.56376 0.84439,3.29953 0.84442,5.20728 m -4.5505,0 c -3e-5,-2.75217 -0.62554,-4.92579 -1.8765,-6.52083 -1.21975,-1.62628 -2.89296,-2.43943 -5.01965,-2.43945 -2.12672,2e-5 -3.81556,0.81317 -5.06655,2.43945 -1.21972,1.59504 -1.8296,3.76866 -1.82958,6.52083 -2e-5,2.75223 0.60986,4.94147 1.82958,6.56776 1.25099,1.59504 2.93983,2.39253 5.06655,2.39253 2.12669,0 3.7999,-0.79749 5.01965,-2.39253 1.25096,-1.62629 1.87647,-3.81553 1.8765,-6.56776"
       id="path4354"
       style="font-size:17.74398041px;font-style:normal;font-variant:normal;font-weight:normal;font-stretch:normal;line-height:125%;letter-spacing:0px;word-spacing:0px;fill:#1a1a1a;fill-opacity:1;stroke:none;font-family:Ubuntu;-inkscape-font-specification:Ubuntu" />
    <path
       d="m 207.87928,216.79768 9.24176,0 0,3.65918 -9.24176,0 0,11.25899 c -2e-5,1.21974 0.0939,2.23617 0.28147,3.04931 0.18771,0.7819 0.46912,1.40738 0.84442,1.8765 0.37529,0.43785 0.84442,0.75062 1.40738,0.93825 0.56295,0.18772 1.21971,0.2815 1.97033,0.28147 1.31355,3e-5 2.36125,-0.14065 3.14315,-0.4222 0.81311,-0.31274 1.37607,-0.53168 1.68884,-0.65678 l 0.84442,3.61227 c -0.43788,0.21891 -1.20409,0.48475 -2.2987,0.79752 -1.09466,0.34402 -2.34566,0.51602 -3.75301,0.51602 -1.65759,0 -3.03369,-0.20331 -4.1283,-0.60985 -1.06335,-0.43785 -1.92343,-1.07899 -2.58019,-1.92341 -0.65678,-0.84442 -1.12591,-1.8765 -1.40737,-3.09624 -0.25011,-1.25099 -0.3753,-2.68962 -0.3753,-4.31594 l 0,-21.76741 4.36286,-0.75059 0,7.55291"
       id="path4356"
       style="font-size:17.74398041px;font-style:normal;font-variant:normal;font-weight:normal;font-stretch:normal;line-height:125%;letter-spacing:0px;word-spacing:0px;fill:#1a1a1a;fill-opacity:1;stroke:none;font-family:Ubuntu;-inkscape-font-specification:Ubuntu" />
    <path
       d="m 227.0357,241.19219 -4.36286,0 0,-24.39451 4.36286,0 0,24.39451 m -2.20489,-28.8043 c -0.78187,3e-5 -1.45428,-0.2501 -2.01724,-0.75059 -0.53168,-0.53165 -0.79752,-1.23534 -0.79752,-2.11106 0,-0.87567 0.26584,-1.56371 0.79752,-2.06414 0.56296,-0.53165 1.23537,-0.79749 2.01724,-0.79752 0.78186,3e-5 1.43865,0.26587 1.97033,0.79752 0.56296,0.50043 0.84442,1.18847 0.84442,2.06414 0,0.87572 -0.28146,1.57941 -0.84442,2.11106 -0.53168,0.50043 -1.18847,0.75062 -1.97033,0.75059"
       id="path4358"
       style="font-size:17.74398041px;font-style:normal;font-variant:normal;font-weight:normal;font-stretch:normal;line-height:125%;letter-spacing:0px;word-spacing:0px;fill:#1a1a1a;fill-opacity:1;stroke:none;font-family:Ubuntu;-inkscape-font-specification:Ubuntu" />
    <path
       d="m 243.40378,227.77521 c 0.93822,0.71934 1.9234,1.61066 2.95549,2.67402 1.06333,1.06336 2.09541,2.22052 3.09621,3.47151 1.03206,1.21974 2.00159,2.47074 2.90859,3.75301 0.90694,1.25099 1.67319,2.4238 2.2987,3.51844 l -5.11346,0 c -0.65678,-1.09464 -1.42302,-2.2049 -2.2987,-3.33081 -0.84444,-1.15716 -1.73579,-2.25177 -2.67402,-3.28385 -0.93827,-1.06336 -1.89215,-2.03289 -2.86165,-2.90859 -0.96956,-0.87569 -1.89216,-1.61066 -2.76785,-2.20489 l 0,11.72814 -4.36287,0 0,-35.65352 4.36287,-0.75059 0,22.23654 c 0.75059,-0.75059 1.57938,-1.57939 2.48636,-2.48639 0.90697,-0.90695 1.79829,-1.82955 2.67402,-2.76782 0.87567,-0.93823 1.70446,-1.82958 2.48636,-2.67403 0.78186,-0.87567 1.45428,-1.64191 2.01723,-2.2987 l 5.11346,0 c -0.71934,0.7819 -1.50121,1.64197 -2.34561,2.5802 -0.84444,0.93825 -1.72014,1.89215 -2.62712,2.86165 -0.90697,0.93828 -1.8296,1.89215 -2.76782,2.86166 -0.907,0.93827 -1.76705,1.8296 -2.58019,2.67402"
       id="path4360"
       style="font-size:17.74398041px;font-style:normal;font-variant:normal;font-weight:normal;font-stretch:normal;line-height:125%;letter-spacing:0px;word-spacing:0px;fill:#1a1a1a;fill-opacity:1;stroke:none;font-family:Ubuntu;-inkscape-font-specification:Ubuntu" />
    <path
       d="m 278.47015,240.4885 c -1.00083,0.25011 -2.33003,0.51603 -3.98757,0.79752 -1.62631,0.28146 -3.51847,0.42219 -5.67641,0.42219 -1.87653,0 -3.45591,-0.26584 -4.73818,-0.79751 -1.28227,-0.56293 -2.31435,-1.34483 -3.09622,-2.34563 -0.78187,-1.00078 -1.34482,-2.17359 -1.68884,-3.51842 -0.34405,-1.3761 -0.51606,-2.89293 -0.51606,-4.55052 l 0,-13.69845 4.36289,0 0,12.7602 c -2e-5,2.97114 0.4691,5.09783 1.40735,6.3801 0.93825,1.28229 2.51764,1.92343 4.73819,1.9234 0.4691,3e-5 0.95387,-0.0159 1.45428,-0.0468 0.50037,-0.0312 0.9695,-0.0627 1.40737,-0.0939 0.43783,-0.0627 0.82877,-0.10946 1.17282,-0.14066 0.37527,-0.0627 0.6411,-0.12505 0.79752,-0.18771 l 0,-20.5946 4.36286,0 0,23.69082"
       id="path4362"
       style="font-size:17.74398041px;font-style:normal;font-variant:normal;font-weight:normal;font-stretch:normal;line-height:125%;letter-spacing:0px;word-spacing:0px;fill:#1a1a1a;fill-opacity:1;stroke:none;font-family:Ubuntu;-inkscape-font-specification:Ubuntu" />
    <path
       d="m 285.98641,217.50137 c 1.00078,-0.25011 2.31433,-0.51602 3.94064,-0.79752 1.65757,-0.28143 3.56535,-0.42219 5.72334,-0.42222 1.56373,3e-5 2.87728,0.21891 3.94064,0.65679 1.06333,0.4066 1.95468,1.01645 2.67402,1.82957 0.21891,-0.15625 0.56293,-0.37527 1.03206,-0.65676 0.46912,-0.28146 1.0477,-0.5473 1.73576,-0.79752 0.68804,-0.28144 1.45428,-0.516 2.29873,-0.70369 0.8444,-0.21891 1.75137,-0.32836 2.72092,-0.32839 1.87648,3e-5 3.40894,0.28152 4.59743,0.84445 1.18841,0.53168 2.11101,1.29792 2.76782,2.2987 0.68801,1.00083 1.14151,2.18927 1.36048,3.56534 0.25011,1.37613 0.37527,2.87733 0.37529,4.50362 l 0,13.69845 -4.36286,0 0,-12.76022 c -3e-5,-1.43863 -0.0783,-2.674 -0.23451,-3.70608 -0.12505,-1.03205 -0.39097,-1.89213 -0.79752,-2.58019 -0.37532,-0.68804 -0.907,-1.18844 -1.59501,-1.50121 -0.65681,-0.34399 -1.51688,-0.516 -2.58019,-0.51602 -1.46996,2e-5 -2.68967,0.20331 -3.65917,0.60985 -0.93828,0.37533 -1.57942,0.71934 -1.92343,1.03209 0.2501,0.81317 0.43785,1.70449 0.56295,2.67402 0.12506,0.96952 0.18772,1.98595 0.18772,3.04931 l 0,13.69845 -4.36287,0 0,-12.76022 c -2e-5,-1.43863 -0.0782,-2.674 -0.23451,-3.70608 -0.15651,-1.03205 -0.43787,-1.89213 -0.84442,-2.58019 -0.37532,-0.68804 -0.907,-1.18844 -1.59503,-1.50121 -0.65679,-0.34399 -1.50121,-0.516 -2.53327,-0.51602 -0.43787,2e-5 -0.907,0.0159 -1.40737,0.0468 -0.50043,0.0312 -0.98518,0.0783 -1.45431,0.14065 -0.43785,0.0312 -0.84442,0.0783 -1.21971,0.14066 -0.37533,0.0627 -0.62551,0.10945 -0.75059,0.14065 l 0,20.5946 -4.36287,0 0,-23.69082"
       id="path4364"
       style="font-size:17.74398041px;font-style:normal;font-variant:normal;font-weight:normal;font-stretch:normal;line-height:125%;letter-spacing:0px;word-spacing:0px;fill:#1a1a1a;fill-opacity:1;stroke:none;font-family:Ubuntu;-inkscape-font-specification:Ubuntu" />
    <path
       d="m 295.61539,246.83264 c -0.2168,0 -0.41866,0.0402 -0.60568,0.12109 -0.18719,0.0767 -0.34849,0.18507 -0.48452,0.3253 -0.13589,0.13589 -0.24429,0.29555 -0.32527,0.47814 -0.0764,0.18269 -0.11501,0.37828 -0.11501,0.58656 l 0,4.02926 c 0,0.20808 0.0383,0.40377 0.11501,0.58654 0.0809,0.18269 0.18903,0.34413 0.32527,0.48454 0.1359,0.1359 0.29736,0.2443 0.48452,0.3253 0.18718,0.0764 0.38893,0.11448 0.60568,0.11448 0.17846,0 0.34631,-0.0212 0.50368,-0.0701 0.15731,-0.051 0.29952,-0.12109 0.42714,-0.21045 0.13166,-0.0891 0.24429,-0.19538 0.33796,-0.31874 0.0978,-0.12321 0.17238,-0.25937 0.22314,-0.408 l 1.00734,0 c -0.0595,0.28902 -0.16366,0.55679 -0.31224,0.80331 -0.14859,0.24667 -0.33363,0.45902 -0.55468,0.63751 -0.2168,0.17846 -0.46328,0.31877 -0.73957,0.42079 -0.27633,0.10179 -0.57377,0.15308 -0.89256,0.15308 -0.35682,0 -0.69068,-0.0661 -1.00094,-0.19776 -0.30608,-0.13166 -0.57377,-0.31041 -0.80331,-0.53554 -0.22948,-0.22948 -0.41014,-0.49728 -0.54188,-0.80331 -0.1277,-0.30605 -0.19142,-0.63325 -0.19142,-0.98179 l 0,-4.02929 c 0,-0.34848 0.0637,-0.67579 0.19142,-0.98182 0.13166,-0.30608 0.31221,-0.57168 0.54188,-0.79694 0.22949,-0.22948 0.49728,-0.41014 0.80331,-0.54193 0.31042,-0.13167 0.64394,-0.1975 1.00094,-0.1975 0.31877,5e-5 0.61631,0.051 0.89256,0.15308 0.28067,0.10179 0.52917,0.24429 0.74594,0.42717 0.2168,0.17846 0.39951,0.39102 0.54831,0.63754 0.14858,0.24667 0.25275,0.51214 0.31224,0.79693 l -1.00734,0 c -0.051,-0.14462 -0.12558,-0.2785 -0.22314,-0.40165 -0.0936,-0.12321 -0.2041,-0.22949 -0.33143,-0.31877 -0.1277,-0.0891 -0.27198,-0.15916 -0.43354,-0.21045 -0.15731,-0.051 -0.32527,-0.0764 -0.50366,-0.0764"
       id="path4367"
       style="font-size:3.600559px;font-style:normal;font-variant:normal;font-weight:normal;font-stretch:normal;line-height:125%;letter-spacing:0px;word-spacing:0px;fill:#4d4d4d;fill-opacity:1;stroke:none;font-family:Envy Code R;-inkscape-font-specification:Envy Code R" />
    <path
       d="m 303.11291,245.8253 c 0.27633,6e-5 0.53554,0.0534 0.77782,0.15969 0.24667,0.10629 0.46114,0.2509 0.64391,0.43352 0.18269,0.18269 0.3271,0.39742 0.43351,0.64391 0.10629,0.24217 0.15916,0.50156 0.15943,0.77779 l 0,1.00734 c -3e-5,0.18718 -0.0574,0.37188 -0.17212,0.55465 -0.115,0.18269 -0.26761,0.36118 -0.45902,0.53554 -0.18719,0.17397 -0.40166,0.34632 -0.64391,0.5164 -0.24218,0.16577 -0.4888,0.33146 -0.73957,0.49728 -0.2509,0.16577 -0.49728,0.32927 -0.73956,0.49094 -0.24218,0.16127 -0.45903,0.3231 -0.65029,0.48451 -0.18718,0.15731 -0.33796,0.31658 -0.45268,0.47817 -0.11448,0.15731 -0.17211,0.31441 -0.17211,0.47179 l 0,1.00729 4.02928,0 0,1.00733 -5.03662,0 0,-2.26967 c 0,-0.18718 0.0574,-0.374 0.17212,-0.56102 0.11474,-0.18719 0.26581,-0.37189 0.45265,-0.55466 0.19115,-0.18269 0.40803,-0.36118 0.65031,-0.53554 0.24218,-0.17846 0.48877,-0.35285 0.73954,-0.52277 0.2509,-0.17 0.49728,-0.33579 0.73954,-0.49728 0.24218,-0.16127 0.45694,-0.31657 0.64394,-0.4654 0.19115,-0.15308 0.34415,-0.29772 0.45902,-0.43354 0.11448,-0.14039 0.17238,-0.27414 0.17238,-0.40165 l 0,-0.80971 c 0,-0.14039 -0.0291,-0.26978 -0.083,-0.38888 -0.051,-0.12321 -0.1232,-0.22949 -0.21679,-0.31875 -0.0891,-0.0936 -0.19538,-0.16577 -0.31875,-0.21679 -0.11897,-0.055 -0.24878,-0.083 -0.38891,-0.083 l -1.00731,0 c -0.14038,0 -0.27199,0.0291 -0.39528,0.083 -0.11897,0.051 -0.22525,0.1232 -0.31877,0.21679 -0.0891,0.0891 -0.16127,0.19539 -0.21679,0.31875 -0.051,0.11897 -0.0764,0.24878 -0.0764,0.38888 l -1.00734,0 c 0,-0.27631 0.0529,-0.53554 0.15916,-0.77779 0.10629,-0.24668 0.25091,-0.46114 0.43352,-0.64391 0.18269,-0.18269 0.39528,-0.3271 0.63756,-0.43352 0.24667,-0.10628 0.50791,-0.15916 0.78417,-0.15969 l 1.00731,0"
       id="path4369"
       style="font-size:3.600559px;font-style:normal;font-variant:normal;font-weight:normal;font-stretch:normal;line-height:125%;letter-spacing:0px;word-spacing:0px;fill:#4d4d4d;fill-opacity:1;stroke:none;font-family:Envy Code R;-inkscape-font-specification:Envy Code R" />
    <path
       d="m 307.10394,248.34363 c 0,-0.34849 0.0661,-0.6758 0.19749,-0.98182 0.13167,-0.30608 0.31042,-0.57166 0.53554,-0.79694 0.22949,-0.22949 0.49729,-0.41014 0.80334,-0.54191 0.30605,-0.13167 0.63328,-0.19776 0.98182,-0.19776 0.34849,5e-5 0.67577,0.0661 0.9818,0.19776 0.30608,0.13166 0.57165,0.31258 0.79693,0.54191 0.22949,0.22526 0.41014,0.49094 0.54191,0.79694 0.13167,0.30605 0.19776,0.63331 0.19776,0.98182 l 0,6.54758 -1.00733,0 0,-4.02928 -3.02195,0 0,4.02928 -1.00734,0 0,-6.54758 m 4.02929,1.51096 0,-1.51096 c 0,-0.20807 -0.0402,-0.4038 -0.12109,-0.58657 -0.0764,-0.18269 -0.18507,-0.34195 -0.3253,-0.47811 -0.13589,-0.14039 -0.29553,-0.24879 -0.47817,-0.3253 -0.18269,-0.0809 -0.37825,-0.12109 -0.58651,-0.12109 -0.20807,0 -0.4038,0.0402 -0.58656,0.12109 -0.1827,0.0764 -0.34416,0.18507 -0.48452,0.3253 -0.13589,0.13589 -0.24455,0.29553 -0.3253,0.47811 -0.0764,0.18269 -0.11448,0.37831 -0.11448,0.58657 l 0,1.51096 3.02196,0"
       id="path4371"
       style="font-size:3.600559px;font-style:normal;font-variant:normal;font-weight:normal;font-stretch:normal;line-height:125%;letter-spacing:0px;word-spacing:0px;fill:#4d4d4d;fill-opacity:1;stroke:none;font-family:Envy Code R;-inkscape-font-specification:Envy Code R" />
    <path
       d="m 314.11695,248.34363 c 0,-0.34849 0.0661,-0.6758 0.19776,-0.98182 0.13166,-0.30608 0.31041,-0.57166 0.53554,-0.79694 0.22948,-0.22949 0.49728,-0.41014 0.80331,-0.54191 0.30605,-0.13167 0.63325,-0.19776 0.98179,-0.19776 0.34849,5e-5 0.6758,0.0661 0.98182,0.19776 0.30608,0.13166 0.57166,0.31258 0.79694,0.54191 0.22949,0.22526 0.41014,0.49094 0.54188,0.79694 0.13167,0.30605 0.19777,0.63331 0.19777,0.98182 l 0,4.02929 c 0,0.34848 -0.0661,0.67582 -0.19777,0.98179 -0.13166,0.30608 -0.31223,0.5738 -0.54188,0.80331 -0.22526,0.22526 -0.49094,0.4038 -0.79694,0.53554 -0.30605,0.13166 -0.63331,0.19776 -0.98182,0.19776 -0.34849,0 -0.67582,-0.0661 -0.98179,-0.19776 -0.30608,-0.13166 -0.5738,-0.31042 -0.80331,-0.53554 -0.22526,-0.22949 -0.4038,-0.49728 -0.53554,-0.80331 -0.13167,-0.30605 -0.19776,-0.63325 -0.19776,-0.98179 l 0,-4.02929 m 2.5183,5.54025 c 0.20807,0 0.40374,-0.0381 0.58651,-0.11448 0.18269,-0.0809 0.34198,-0.1893 0.47817,-0.3253 0.14038,-0.14039 0.24878,-0.30172 0.3253,-0.48454 0.0809,-0.18269 0.12108,-0.37828 0.12108,-0.58654 l 0,-2.64581 -3.02197,2.39079 0,0.25486 c 0,0.20807 0.0381,0.40377 0.115,0.58654 0.0809,0.18269 0.1893,0.34413 0.32528,0.48454 0.14039,0.1359 0.30171,0.24429 0.48456,0.3253 0.18269,0.0764 0.37826,0.11448 0.58652,0.11448 m 0,-7.05124 c -0.20808,0 -0.4038,0.0402 -0.58652,0.12109 -0.18269,0.0764 -0.34415,0.18507 -0.48456,0.3253 -0.1359,0.13589 -0.24456,0.29553 -0.32528,0.47811 -0.0764,0.18269 -0.115,0.37831 -0.115,0.58657 l 0,2.48641 3.02197,-2.39078 0,-0.0957 c 0,-0.20807 -0.0402,-0.4038 -0.12108,-0.58657 -0.0764,-0.18269 -0.18507,-0.34195 -0.3253,-0.47811 -0.1359,-0.14039 -0.29553,-0.24879 -0.47817,-0.3253 -0.18269,-0.0809 -0.37826,-0.12109 -0.58651,-0.12109"
       id="path4373"
       style="font-size:3.600559px;font-style:normal;font-variant:normal;font-weight:normal;font-stretch:normal;line-height:125%;letter-spacing:0px;word-spacing:0px;fill:#4d4d4d;fill-opacity:1;stroke:none;font-family:Envy Code R;-inkscape-font-specification:Envy Code R" />
  </g>
</svg>
